<?xml version="1.0" encoding="UTF-8"?>
<svg width="512px" height="509px" viewBox="0 0 512 509" version="1.1" xmlns="http://www.w3.org/2000/svg" xmlns:xlink="http://www.w3.org/1999/xlink">
    <title>business</title>
    <g id="Page-1" stroke="none" stroke-width="1" fill="none" fill-rule="evenodd">
        <g id="business" fill="#A2A2A2" fill-rule="nonzero">
            <path d="M277.973333,36.8933333 L43.52,1.26666667 C32.64,-0.44 21.5466667,2.54666667 13.2266667,9.58666667 C4.90666667,16.84 -1.89478063e-14,27.2933333 -1.89478063e-14,38.1733333 L-1.89478063e-14,487.666667 C-1.89478063e-14,499.4 9.6,509 21.3333333,509 L90.6666667,509 L90.6666667,397 C90.6666667,376.306667 107.306667,359.666667 128,359.666667 L181.333333,359.666667 C202.026667,359.666667 218.666667,376.306667 218.666667,397 L218.666667,509 L309.333333,509 L309.333333,73.8 C309.333333,55.4533333 296.106667,39.88 277.973333,36.8933333 Z M117.333333,311.666667 L85.3333333,311.666667 C76.5013333,311.666667 69.3333333,304.498667 69.3333333,295.666667 C69.3333333,286.834667 76.5013333,279.666667 85.3333333,279.666667 L117.333333,279.666667 C126.165333,279.666667 133.333333,286.834667 133.333333,295.666667 C133.333333,304.498667 126.165333,311.666667 117.333333,311.666667 Z M117.333333,247.666667 L85.3333333,247.666667 C76.5013333,247.666667 69.3333333,240.498667 69.3333333,231.666667 C69.3333333,222.834667 76.5013333,215.666667 85.3333333,215.666667 L117.333333,215.666667 C126.165333,215.666667 133.333333,222.834667 133.333333,231.666667 C133.333333,240.498667 126.165333,247.666667 117.333333,247.666667 Z M117.333333,183.666667 L85.3333333,183.666667 C76.5013333,183.666667 69.3333333,176.498667 69.3333333,167.666667 C69.3333333,158.834667 76.5013333,151.666667 85.3333333,151.666667 L117.333333,151.666667 C126.165333,151.666667 133.333333,158.834667 133.333333,167.666667 C133.333333,176.498667 126.165333,183.666667 117.333333,183.666667 Z M117.333333,119.666667 L85.3333333,119.666667 C76.5013333,119.666667 69.3333333,112.498667 69.3333333,103.666667 C69.3333333,94.8346667 76.5013333,87.6666667 85.3333333,87.6666667 L117.333333,87.6666667 C126.165333,87.6666667 133.333333,94.8346667 133.333333,103.666667 C133.333333,112.498667 126.165333,119.666667 117.333333,119.666667 Z M224,311.666667 L192,311.666667 C183.168,311.666667 176,304.498667 176,295.666667 C176,286.834667 183.168,279.666667 192,279.666667 L224,279.666667 C232.832,279.666667 240,286.834667 240,295.666667 C240,304.498667 232.832,311.666667 224,311.666667 Z M224,247.666667 L192,247.666667 C183.168,247.666667 176,240.498667 176,231.666667 C176,222.834667 183.168,215.666667 192,215.666667 L224,215.666667 C232.832,215.666667 240,222.834667 240,231.666667 C240,240.498667 232.832,247.666667 224,247.666667 Z M224,183.666667 L192,183.666667 C183.168,183.666667 176,176.498667 176,167.666667 C176,158.834667 183.168,151.666667 192,151.666667 L224,151.666667 C232.832,151.666667 240,158.834667 240,167.666667 C240,176.498667 232.832,183.666667 224,183.666667 Z M224,119.666667 L192,119.666667 C183.168,119.666667 176,112.498667 176,103.666667 C176,94.8346667 183.168,87.6666667 192,87.6666667 L224,87.6666667 C232.832,87.6666667 240,94.8346667 240,103.666667 C240,112.498667 232.832,119.666667 224,119.666667 Z" id="Shape"></path>
            <path d="M482.56,228.296 L330.666667,196.488 L330.666667,509 L474.666667,509 C495.253333,509 512,492.253333 512,471.666667 L512,264.776 C512,247.154667 499.989333,232.157333 482.56,228.296 Z M432,445 L400,445 C391.168,445 384,437.832 384,429 C384,420.168 391.168,413 400,413 L432,413 C440.832,413 448,420.168 448,429 C448,437.832 440.832,445 432,445 Z M432,381 L400,381 C391.168,381 384,373.832 384,365 C384,356.168 391.168,349 400,349 L432,349 C440.832,349 448,356.168 448,365 C448,373.832 440.832,381 432,381 Z M432,317 L400,317 C391.168,317 384,309.832 384,301 C384,292.168 391.168,285 400,285 L432,285 C440.832,285 448,292.168 448,301 C448,309.832 440.832,317 432,317 Z" id="Shape"></path>
        </g>
    </g>
</svg>