<?xml version="1.0" encoding="UTF-8"?>
<svg width="512px" height="512px" viewBox="0 0 512 512" version="1.1" xmlns="http://www.w3.org/2000/svg" xmlns:xlink="http://www.w3.org/1999/xlink">
    <title>image</title>
    <g id="Page-1" stroke="none" stroke-width="1" fill="none" fill-rule="evenodd">
        <g id="image" fill="#A2A2A2" fill-rule="nonzero">
            <path d="M386.965,210.868 C386.863,210.751 386.765,210.633 386.667,210.512 C384.284,207.578 381.209,207 379.589,206.916 C377.969,206.831 374.851,207.094 372.181,209.768 L224.454,357.724 C218.946,363.239 210.145,363.648 204.15,358.67 L141.976,307.042 C138.317,304.003 133.033,304.036 129.414,307.117 C129.368,307.156 129.323,307.194 129.275,307.233 L0,414.596 L0,446.574 C0,482.65 29.349,511.999 65.425,511.999 L446.574,511.999 C482.65,511.999 511.999,482.649 511.999,446.574 L511.999,355.497 L386.965,210.868 Z" id="Path"></path>
            <path d="M161.174,93.152 C137.708,93.152 118.617,112.243 118.617,135.708 C118.617,159.173 137.709,178.264 161.174,178.264 C184.64,178.264 203.73,159.173 203.73,135.708 C203.73,112.242 184.64,93.152 161.174,93.152 Z" id="Path"></path>
            <path d="M446.575,0 L65.425,0 C29.351,0 0,29.349 0,65.425 L0,375.393 L109.944,284.084 C124.75,271.549 146.307,271.438 161.241,283.839 L212.831,326.679 L350.838,188.459 C358.817,180.47 369.869,176.223 381.133,176.797 C392.323,177.371 402.797,182.653 409.912,191.298 L511.998,309.382 L511.998,65.425 C511.998,29.349 482.649,0 446.575,0 Z M161.174,208.421 C121.079,208.421 88.46,175.802 88.46,135.708 C88.46,95.614 121.081,62.995 161.174,62.995 C201.269,62.995 233.887,95.615 233.887,135.708 C233.887,175.802 201.269,208.421 161.174,208.421 Z" id="Shape"></path>
        </g>
    </g>
</svg>