<?xml version="1.0" encoding="UTF-8"?>
<svg width="362px" height="429px" viewBox="0 0 362 429" version="1.1" xmlns="http://www.w3.org/2000/svg" xmlns:xlink="http://www.w3.org/1999/xlink">
    <title>shield_complete</title>
    <g id="Page-1" stroke="none" stroke-width="1" fill="none" fill-rule="evenodd">
        <g id="shield_complete" fill="#0070F9" fill-rule="nonzero">
            <path d="M360.8,110.208 C360.288,98.944 360.288,88.192 360.288,77.44 C360.288,68.736 353.632,62.08 344.928,62.08 C280.928,62.08 232.288,43.648 191.84,4.224 C185.696,-1.408 176.48,-1.408 170.336,4.224 C129.888,43.648 81.248,62.08 17.248,62.08 C8.544,62.08 1.888,68.736 1.888,77.44 C1.888,88.192 1.888,98.944 1.376,110.208 C-0.672,217.728 -3.744,365.184 175.968,427.136 L181.088,428.16 L186.208,427.136 C365.408,365.184 362.848,218.24 360.8,110.208 Z M168.8,259.2 C165.728,261.76 162.144,263.296 158.048,263.296 L157.536,263.296 C153.44,263.296 149.344,261.248 146.784,258.176 L99.168,205.44 L122.208,184.96 L159.584,226.432 L242.528,147.584 L263.52,170.112 L168.8,259.2 Z" id="Shape"></path>
        </g>
    </g>
</svg>